<svg width="1167" height="74" viewBox="0 0 1167 74" fill="none" xmlns="http://www.w3.org/2000/svg">
<rect width="217.375" height="74" rx="10" fill="white"/>
<path d="M63.7791 17H64.8462C68.5509 17.0805 72.1952 18.5705 74.8127 21.2081C73.8462 22.1946 72.8596 23.1409 71.9133 24.1275C70.4435 22.7987 68.6717 21.7718 66.7388 21.4094C63.8798 20.8054 60.7992 21.349 58.4033 22.9799C55.7858 24.6913 54.014 27.5906 53.6315 30.6913C53.2086 33.7517 54.0744 36.9732 56.0677 39.349C57.9805 41.6644 60.8999 43.1141 63.92 43.2148C66.7388 43.3758 69.6784 42.5101 71.7321 40.5369C73.3429 39.1476 74.0878 37.0336 74.3294 34.9799C70.9872 34.9799 67.6449 35 64.3026 34.9799V30.8322H78.3764C79.1013 35.2819 78.0543 40.2953 74.6717 43.4765C72.4167 45.7315 69.2959 47.0604 66.1147 47.3221C63.0341 47.6242 59.8529 47.0403 57.1147 45.5503C53.8328 43.7987 51.2154 40.8389 49.9268 37.3557C48.7187 34.1544 48.6986 30.5302 49.8261 27.3087C50.8529 24.3691 52.8261 21.7718 55.363 19.9597C57.7992 18.1678 60.759 17.1812 63.7791 17Z" fill="#4285F4"/>
<path d="M144.517 18.0471H148.826V46.7988C147.397 46.7988 145.947 46.8189 144.517 46.7787C144.537 37.2149 144.517 27.631 144.517 18.0471Z" fill="#34A853"/>
<path d="M87.96 28.0136C90.6177 27.5102 93.4969 28.074 95.6916 29.6646C97.6848 31.074 99.0741 33.2887 99.4969 35.7048C100.041 38.5035 99.356 41.5639 97.5439 43.7787C95.5909 46.2552 92.3895 47.584 89.2687 47.3827C86.4097 47.2216 83.6311 45.7921 81.9399 43.4565C80.0271 40.8793 79.564 37.3357 80.611 34.3156C81.658 31.074 84.6177 28.5975 87.96 28.0136ZM88.564 31.8391C87.4768 32.121 86.4701 32.7451 85.7452 33.631C83.7922 35.9666 83.913 39.772 86.0674 41.9465C87.2956 43.1948 89.1479 43.7787 90.8593 43.4364C92.4499 43.1545 93.8392 42.0874 94.6043 40.678C95.9332 38.282 95.5506 34.98 93.5171 33.1075C92.2083 31.8995 90.2956 31.3961 88.564 31.8391Z" fill="#EA4335"/>
<path d="M109.302 28.0135C112.343 27.4296 115.665 28.2752 117.94 30.4094C121.645 33.7316 122.047 39.9531 118.886 43.7786C116.973 46.1947 113.873 47.5235 110.812 47.3826C107.893 47.3021 105.014 45.8524 103.282 43.4564C101.329 40.8188 100.906 37.1947 102.014 34.1141C103.121 30.9732 106.02 28.5772 109.302 28.0135ZM109.906 31.839C108.819 32.1208 107.812 32.745 107.088 33.6108C105.155 35.9061 105.235 39.651 107.309 41.8457C108.537 43.1544 110.45 43.7987 112.222 43.4363C113.792 43.1343 115.202 42.0873 115.967 40.6779C117.275 38.2618 116.893 34.9598 114.839 33.0873C113.53 31.8792 111.618 31.396 109.906 31.839Z" fill="#FBBC05"/>
<path d="M127.403 29.1814C129.718 27.7317 132.799 27.329 135.296 28.5774C136.081 28.9196 136.725 29.5035 137.349 30.0874C137.369 29.5438 137.349 28.98 137.369 28.4163C138.718 28.4364 140.067 28.4163 141.437 28.4364V46.1948C141.416 48.8727 140.732 51.7116 138.799 53.6646C136.685 55.819 133.443 56.4834 130.524 56.0405C127.403 55.5774 124.685 53.3022 123.477 50.423C124.685 49.8391 125.953 49.376 127.202 48.8324C127.906 50.4834 129.336 51.8928 131.128 52.215C132.92 52.5371 134.994 52.0942 136.161 50.6042C137.41 49.074 137.41 46.9801 137.349 45.1076C136.423 46.0136 135.356 46.819 134.067 47.121C131.269 47.9062 128.188 46.9398 126.034 45.0472C123.859 43.1546 122.571 40.2351 122.692 37.3358C122.752 34.0539 124.604 30.8928 127.403 29.1814ZM131.571 31.7586C130.343 31.9599 129.195 32.6445 128.41 33.5908C126.517 35.8458 126.517 39.4499 128.43 41.6646C129.517 42.9733 131.269 43.6982 132.96 43.517C134.551 43.3559 136.02 42.3492 136.806 40.9599C138.135 38.6042 137.913 35.4029 136.121 33.3492C135.014 32.0807 133.242 31.4566 131.571 31.7586Z" fill="#4285F4"/>
<path d="M154.001 30.2081C156.417 27.9531 160.142 27.188 163.242 28.3759C166.182 29.4833 168.055 32.2819 169.001 35.1611C164.632 36.9732 160.283 38.7652 155.914 40.5772C156.518 41.7249 157.444 42.7719 158.692 43.1947C160.444 43.8189 162.538 43.5974 164.008 42.4296C164.591 41.9866 165.055 41.4027 165.498 40.839C166.605 41.584 167.712 42.3088 168.82 43.0538C167.249 45.4095 164.612 47.0605 161.773 47.3222C158.632 47.7048 155.289 46.4967 153.256 44.0403C149.914 40.1746 150.236 33.6913 154.001 30.2081ZM156.155 33.9329C155.471 34.9195 155.189 36.1276 155.209 37.3155C158.128 36.1074 161.048 34.8994 163.967 33.6712C163.484 32.5437 162.316 31.8591 161.128 31.6779C159.216 31.3356 157.222 32.3625 156.155 33.9329Z" fill="#EA4335"/>
<rect x="237.375" width="217.375" height="74" rx="10" fill="white"/>
<path fill-rule="evenodd" clip-rule="evenodd" d="M360.602 47.1539C353.679 52.2727 343.609 55 334.924 55C322.756 55 311.847 50.5105 303.54 43.042C302.91 42.4546 303.456 41.6574 304.253 42.1189C313.19 47.3217 324.225 50.4266 335.637 50.4266C343.315 50.4266 351.791 48.8322 359.595 45.5175C360.77 45.056 361.735 46.3147 360.602 47.1539Z" fill="#FF9900"/>
<path fill-rule="evenodd" clip-rule="evenodd" d="M363.496 43.8393C362.615 42.7064 357.622 43.2938 355.398 43.5875C354.727 43.6714 354.601 43.084 355.231 42.6644C359.217 39.8533 365.72 40.6924 366.475 41.6155C367.23 42.5386 366.265 49.084 362.531 52.1888C361.944 52.6504 361.398 52.3986 361.65 51.7692C362.489 49.6714 364.377 45.0141 363.496 43.8393Z" fill="#FF9900"/>
<path fill-rule="evenodd" clip-rule="evenodd" d="M355.525 22.9443V20.217C355.525 19.7974 355.819 19.5457 356.196 19.5457H368.364C368.742 19.5457 369.077 19.8394 369.077 20.217V22.5247C369.077 22.9023 368.742 23.4058 368.154 24.2449L361.861 33.2239C364.21 33.1819 366.686 33.5176 368.784 34.6924C369.245 34.9441 369.371 35.3637 369.413 35.7413V38.6364C369.413 39.056 368.993 39.5175 368.532 39.2658C364.798 37.2938 359.805 37.084 355.693 39.3077C355.273 39.5175 354.812 39.0979 354.812 38.6784V35.9092C354.812 35.4896 354.812 34.7343 355.273 34.063L362.574 23.6156H356.238C355.861 23.6156 355.525 23.3219 355.525 22.9443ZM311.176 39.8532H307.484C307.148 39.8112 306.854 39.5595 306.812 39.2238V20.259C306.812 19.8814 307.148 19.5876 307.526 19.5876H310.966C311.344 19.5876 311.595 19.8814 311.637 20.217V22.6925H311.721C312.602 20.3009 314.323 19.1681 316.588 19.1681C318.896 19.1681 320.365 20.3009 321.372 22.6925C322.253 20.3009 324.309 19.1681 326.49 19.1681C328.043 19.1681 329.721 19.7974 330.77 21.266C331.945 22.8603 331.693 25.168 331.693 27.2239V39.2238C331.693 39.6014 331.357 39.8951 330.98 39.8951H327.33C326.952 39.8532 326.658 39.5595 326.658 39.2238V29.154C326.658 28.3568 326.742 26.3428 326.574 25.5876C326.281 24.3289 325.483 23.9512 324.392 23.9512C323.511 23.9512 322.546 24.5386 322.169 25.5037C321.791 26.4687 321.833 28.0631 321.833 29.154V39.2238C321.833 39.6014 321.497 39.8951 321.12 39.8951H317.428C317.05 39.8532 316.756 39.5595 316.756 39.2238V29.154C316.756 27.0561 317.092 23.9093 314.49 23.9093C311.847 23.9093 311.931 26.9302 311.931 29.154V39.2238C311.889 39.5595 311.595 39.8532 311.176 39.8532ZM379.567 19.1681C385.063 19.1681 388.042 23.8673 388.042 29.8673C388.042 35.6574 384.769 40.2727 379.567 40.2727C374.196 40.2727 371.259 35.5735 371.259 29.6994C371.217 23.7834 374.196 19.1681 379.567 19.1681ZM379.567 23.0701C376.839 23.0701 376.672 26.8044 376.672 29.112C376.672 31.4197 376.63 36.3707 379.525 36.3707C382.378 36.3707 382.546 32.3847 382.546 29.9512C382.546 28.3568 382.462 26.4267 382 24.9163C381.581 23.5736 380.742 23.0701 379.567 23.0701ZM395.133 39.8532H391.441C391.063 39.8112 390.769 39.5175 390.769 39.1819V20.1751C390.811 19.8394 391.105 19.5457 391.483 19.5457H394.923C395.259 19.5457 395.511 19.7974 395.595 20.0911V22.9862H395.678C396.727 20.3848 398.154 19.1681 400.713 19.1681C402.35 19.1681 403.986 19.7555 405.035 21.3918C406 22.9023 406 25.4617 406 27.3078V39.2658C405.958 39.6014 405.664 39.8532 405.287 39.8532H401.594C401.259 39.8112 400.965 39.5595 400.923 39.2658V28.9442C400.923 26.8463 401.175 23.8254 398.615 23.8254C397.734 23.8254 396.895 24.4128 396.476 25.3358C395.972 26.5107 395.888 27.6435 395.888 28.9442V39.1819C395.846 39.5595 395.511 39.8532 395.133 39.8532ZM345.833 30.7903C345.833 32.2169 345.875 33.4337 345.161 34.7343C344.574 35.7833 343.651 36.4126 342.602 36.4126C341.176 36.4126 340.336 35.3218 340.336 33.7274C340.336 30.5805 343.148 29.9931 345.833 29.9931V30.7903ZM349.567 39.8112C349.315 40.021 348.98 40.063 348.686 39.8951C347.469 38.8881 347.217 38.3847 346.546 37.4196C344.532 39.4755 343.064 40.1049 340.462 40.1049C337.357 40.1049 334.924 38.1749 334.924 34.3567C334.924 31.3358 336.56 29.3218 338.868 28.3148C340.882 27.4337 343.693 27.2659 345.833 27.0141V26.5526C345.833 25.6715 345.917 24.6226 345.371 23.8673C344.91 23.196 344.071 22.9023 343.315 22.9023C341.889 22.9023 340.63 23.6156 340.336 25.1261C340.252 25.4617 340.043 25.7974 339.707 25.7974L336.141 25.4198C335.847 25.3358 335.511 25.1261 335.595 24.6645C336.434 20.3009 340.336 19.0002 343.861 19.0002C345.665 19.0002 348.015 19.4618 349.441 20.8464C351.245 22.5247 351.078 24.7904 351.078 27.2239V32.9721C351.078 34.6924 351.791 35.4476 352.462 36.4126C352.714 36.7483 352.756 37.1679 352.462 37.3777C351.665 38.007 350.322 39.1819 349.567 39.8112ZM297.372 30.7903C297.372 32.2169 297.414 33.4337 296.7 34.7343C296.113 35.7833 295.19 36.4126 294.141 36.4126C292.714 36.4126 291.875 35.3218 291.875 33.7274C291.875 30.5805 294.686 29.9931 297.372 29.9931V30.7903ZM301.064 39.8112C300.812 40.021 300.477 40.063 300.183 39.8951C298.966 38.8881 298.714 38.3847 298.043 37.4196C296.029 39.4755 294.561 40.1049 291.959 40.1049C288.854 40.1049 286.421 38.1749 286.421 34.3567C286.421 31.3358 288.057 29.3218 290.365 28.3148C292.379 27.4337 295.19 27.2659 297.33 27.0141V26.5526C297.33 25.6715 297.414 24.6226 296.868 23.8673C296.407 23.196 295.568 22.9023 294.812 22.9023C293.386 22.9023 292.127 23.6156 291.833 25.1261C291.749 25.4617 291.54 25.7974 291.204 25.7974L287.638 25.4198C287.344 25.3358 287.008 25.1261 287.092 24.6645C287.931 20.3009 291.833 19.0002 295.358 19.0002C297.162 19.0002 299.512 19.4618 300.938 20.8464C302.742 22.5247 302.575 24.7904 302.575 27.2239V32.9721C302.575 34.6924 303.288 35.4476 303.959 36.4126C304.211 36.7483 304.253 37.1679 303.959 37.3777C303.162 38.007 301.819 39.1819 301.064 39.8112Z" fill="black"/>
<rect x="474.75" width="217.375" height="74" rx="10" fill="white"/>
<g clip-path="url(#clip0_1_89)">
<path d="M591.568 27.0501C591.568 28.4917 590.406 29.6525 588.965 29.6525C587.523 29.6525 586.362 28.4917 586.362 27.0501C586.362 25.6085 587.483 24.4478 588.965 24.4478C590.447 24.4878 591.568 25.6489 591.568 27.0501ZM580.837 32.2956V32.9364C580.837 32.9364 579.596 31.334 576.953 31.334C572.589 31.334 569.185 34.6576 569.185 39.2619C569.185 43.8266 572.549 47.1897 576.953 47.1897C579.636 47.1897 580.837 45.5481 580.837 45.5481V46.2285C580.837 46.5489 581.078 46.7885 581.397 46.7885H584.64V31.7332H581.397C581.078 31.7344 580.837 32.0152 580.837 32.2956ZM580.837 41.9446C580.237 42.8258 579.035 43.5866 577.594 43.5866C575.032 43.5866 573.069 41.985 573.069 39.2619C573.069 36.5391 575.032 34.9376 577.594 34.9376C578.996 34.9376 580.277 35.7383 580.837 36.5791V41.9446ZM587.043 31.7344H590.887V46.7897H587.043V31.7344ZM644.46 31.3336C641.817 31.3336 640.576 32.936 640.576 32.936V24.4878H636.732V46.7897H639.976C640.296 46.7897 640.536 46.5093 640.536 46.2289V45.5485C640.536 45.5485 641.777 47.1901 644.419 47.1901C648.784 47.1901 652.187 43.8278 652.187 39.2631C652.187 34.6984 648.784 31.3336 644.46 31.3336ZM643.819 43.5462C642.337 43.5462 641.176 42.7862 640.576 41.9046V36.5391C641.176 35.7383 642.457 34.8976 643.819 34.8976C646.381 34.8976 648.343 36.4991 648.343 39.2219C648.343 41.9446 646.382 43.5462 643.819 43.5462ZM634.73 37.8611V46.8297H630.886V38.3011C630.886 35.8191 630.085 34.8176 627.925 34.8176C626.764 34.8176 625.562 35.4183 624.8 36.2995V46.7901H620.957V31.7348H623.999C624.32 31.7348 624.56 32.0152 624.56 32.2956V32.9364C625.681 31.7748 627.163 31.334 628.644 31.334C630.326 31.334 631.727 31.8152 632.848 32.776C634.209 33.8972 634.73 35.3384 634.73 37.8611ZM611.627 31.3336C608.985 31.3336 607.743 32.936 607.743 32.936V24.4878H603.9V46.7897H607.143C607.463 46.7897 607.703 46.5093 607.703 46.2289V45.5485C607.703 45.5485 608.945 47.1901 611.587 47.1901C615.952 47.1901 619.355 43.8278 619.355 39.2631C619.395 34.698 615.992 31.3336 611.627 31.3336ZM610.986 43.5462C609.505 43.5462 608.344 42.7862 607.743 41.9046V36.5391C608.344 35.7383 609.625 34.8976 610.986 34.8976C613.549 34.8976 615.511 36.4991 615.511 39.2219C615.511 41.9446 613.549 43.5462 610.986 43.5462ZM600.576 31.3336C601.737 31.3336 602.338 31.5344 602.338 31.5344V35.0975C602.338 35.0975 599.135 34.0164 597.133 36.2991V46.8293H593.289V31.7344H596.532C596.853 31.7344 597.092 32.0148 597.092 32.2952V32.936C597.814 32.0948 599.376 31.3336 600.576 31.3336ZM560.658 45.4282C560.458 44.9478 560.257 44.4274 560.057 43.9866C559.736 43.2662 559.416 42.585 559.136 41.9446L559.096 41.9046C556.333 35.8983 553.371 29.8129 550.247 23.8074L550.127 23.5666C549.799 22.9436 549.479 22.3162 549.167 21.6846C548.766 20.9634 548.366 20.2034 547.725 19.4823C546.444 17.8807 544.602 16.9995 542.641 16.9995C540.638 16.9995 538.837 17.8807 537.516 19.4019C536.915 20.1223 536.474 20.883 536.074 21.6042C535.762 22.2354 535.442 22.8628 535.114 23.4862L534.994 23.727C531.91 29.7325 528.908 35.8183 526.145 41.8242L526.105 41.9038C525.825 42.5454 525.504 43.2258 525.183 43.9458C524.983 44.3866 524.783 44.867 524.583 45.3873C524.063 46.8685 523.902 48.2701 524.103 49.7121C524.543 52.7152 526.545 55.2368 529.308 56.3587C530.349 56.7995 531.43 56.9995 532.551 56.9995C532.872 56.9995 533.272 56.9595 533.592 56.9191C534.914 56.7591 536.275 56.3191 537.597 55.5583C539.238 54.6372 540.8 53.3164 542.561 51.3944C544.323 53.3164 545.925 54.6372 547.526 55.5583C548.848 56.3191 550.209 56.7591 551.53 56.9191C551.85 56.9599 552.251 56.9995 552.572 56.9995C553.693 56.9995 554.814 56.7995 555.814 56.3587C558.618 55.2368 560.579 52.6752 561.02 49.7121C561.338 48.3109 561.178 46.9101 560.658 45.4282ZM542.6 47.5101C540.438 44.7874 539.036 42.225 538.556 40.0635C538.356 39.1423 538.316 38.3415 538.436 37.6207C538.516 36.9799 538.757 36.4191 539.077 35.9387C539.838 34.8584 541.119 34.1772 542.601 34.1772C544.083 34.1772 545.404 34.818 546.125 35.9387C546.445 36.4191 546.685 36.9803 546.766 37.6207C546.885 38.3419 546.845 39.1823 546.645 40.0635C546.163 42.185 544.762 44.7478 542.6 47.5101ZM558.575 49.3921C558.295 51.474 556.894 53.2764 554.932 54.0772C553.971 54.4772 552.93 54.5976 551.889 54.4772C550.889 54.3568 549.887 54.0364 548.847 53.4364C547.405 52.6348 545.964 51.3944 544.282 49.5521C546.924 46.3093 548.526 43.3458 549.127 40.7038C549.407 39.4623 549.447 38.3415 549.327 37.2999C549.167 36.2991 548.806 35.3779 548.246 34.5772C547.004 32.7748 544.921 31.7344 542.6 31.7344C540.278 31.7344 538.196 32.8156 536.955 34.5772C536.394 35.3779 536.034 36.2991 535.874 37.2999C535.714 38.3415 535.753 39.5023 536.074 40.7038C536.674 43.3458 538.316 46.3489 540.918 49.5921C539.276 51.434 537.795 52.6756 536.353 53.4764C535.312 54.0772 534.312 54.3976 533.311 54.5172C532.23 54.6376 531.188 54.4772 530.268 54.1172C528.306 53.3164 526.905 51.514 526.625 49.4321C526.505 48.4313 526.584 47.4305 526.985 46.3093C527.105 45.9085 527.305 45.5086 527.505 45.0282C527.786 44.3874 528.105 43.7062 528.426 43.0258L528.467 42.9462C531.229 36.9799 534.192 30.894 537.275 24.9686L537.395 24.7278C537.716 24.1278 538.036 23.487 538.356 22.8862C538.676 22.2454 539.036 21.6446 539.477 21.1238C540.318 20.1639 541.439 19.6427 542.68 19.6427C543.922 19.6427 545.043 20.1639 545.883 21.1238C546.324 21.6458 546.684 22.2466 547.005 22.8862C547.325 23.487 547.646 24.1278 547.965 24.7278L548.086 24.9686C551.122 30.9187 554.045 36.9256 556.854 42.9862V43.0262C557.175 43.6678 557.455 44.3878 557.776 45.0294C557.976 45.5089 558.176 45.9089 558.296 46.3097C558.616 47.3497 558.736 48.3513 558.575 49.3921Z" fill="#FF5A5F"/>
</g>
<rect x="712.125" width="217.375" height="74" rx="10" fill="white"/>
<g clip-path="url(#clip1_1_89)">
<path d="M759.329 27.4182C757.633 27.4182 757.124 28.1644 757.124 29.8264V32.5738H761.669L761.228 37.051H757.124V50.5845H751.663V37.051H748V32.6077H751.663V29.9281C751.663 25.3831 753.495 23.0088 758.549 23.0088C759.6 23.0088 760.685 23.0766 761.737 23.2123V27.4182" fill="#1A5098"/>
<path d="M762.042 41.0196C762.042 35.9997 764.416 32.2008 769.436 32.2008C772.15 32.2008 773.812 33.5915 774.626 35.3552V32.6078H779.849V50.6185H774.592V47.905C773.846 49.6349 772.116 50.9916 769.402 50.9916C764.416 50.9916 762.008 47.2267 762.008 42.1728L762.042 41.0196ZM767.503 42.2407C767.503 44.9202 768.487 46.7179 771.031 46.7179C773.269 46.7179 774.388 45.0898 774.388 42.512V40.6804C774.388 38.1026 773.235 36.4745 771.031 36.4745C768.487 36.4745 767.503 38.2383 767.503 40.9518V42.2407Z" fill="#1A5098"/>
<path d="M791.178 32.2008C793.281 32.2008 795.316 32.6417 796.402 33.4219L795.18 37.2886C794.061 36.7459 792.806 36.4745 791.551 36.4745C788.6 36.4745 787.311 38.1704 787.311 41.0874V42.1389C787.311 45.0559 788.6 46.7518 791.551 46.7518C792.806 46.7518 794.061 46.4465 795.18 45.9038L796.402 49.7705C795.316 50.5168 793.315 50.9916 791.178 50.9916C784.768 50.9916 781.884 47.5659 781.884 42.0371V41.1892C781.884 35.6605 784.768 32.2008 791.178 32.2008Z" fill="#1A5098"/>
<path d="M797.114 42.2746V40.6804C797.114 35.5587 800.031 32.2008 805.967 32.2008C811.563 32.2008 814.039 35.5926 814.039 40.6126V43.4956H802.575C802.677 45.9717 803.796 47.0571 806.815 47.0571C808.782 47.0571 810.749 46.6839 812.615 45.9717L813.598 49.7027C812.174 50.4489 809.223 51.0255 806.611 51.0255C799.692 50.9916 797.114 47.5658 797.114 42.2746ZM802.575 39.9003H809.155V39.4593C809.155 37.4921 808.375 35.9318 805.967 35.9318C803.525 35.9318 802.575 37.4921 802.575 39.9003Z" fill="#1A5098"/>
<path d="M834.254 42.1726C834.254 47.1925 831.846 50.9914 826.826 50.9914C824.113 50.9914 822.213 49.6347 821.467 47.9048V50.6183H816.311V23.5514L821.772 23.0765V35.1176C822.552 33.5234 824.316 32.2345 826.86 32.2345C831.846 32.2345 834.288 35.9995 834.288 41.0533L834.254 42.1726ZM828.793 40.9176C828.793 38.3737 827.81 36.4743 825.198 36.4743C822.96 36.4743 821.772 38.0685 821.772 40.6463V42.5457C821.772 45.1235 822.993 46.7177 825.198 46.7177C827.81 46.7177 828.793 44.8182 828.793 42.2744V40.9176Z" fill="#1A5098"/>
<path d="M836.052 42.0371V41.1213C836.052 35.9318 839.003 32.2008 845.007 32.2008C851.01 32.2008 853.961 35.9318 853.961 41.1213V42.0371C853.961 47.2267 851.01 50.9577 845.007 50.9577C839.003 50.9577 836.052 47.2606 836.052 42.0371ZM848.534 40.7482C848.534 38.374 847.551 36.4745 845.007 36.4745C842.463 36.4745 841.479 38.374 841.479 40.7482V42.4442C841.479 44.8185 842.463 46.7179 845.007 46.7179C847.551 46.7179 848.534 44.8185 848.534 42.4442V40.7482Z" fill="#1A5098"/>
<path d="M855.827 42.0371V41.1213C855.827 35.9318 858.777 32.2008 864.781 32.2008C870.785 32.2008 873.735 35.9318 873.735 41.1213V42.0371C873.735 47.2267 870.785 50.9577 864.781 50.9577C858.777 50.9577 855.827 47.2606 855.827 42.0371ZM868.309 40.7482C868.309 38.374 867.325 36.4745 864.781 36.4745C862.237 36.4745 861.253 38.374 861.253 40.7482V42.4442C861.253 44.8185 862.237 46.7179 864.781 46.7179C867.325 46.7179 868.309 44.8185 868.309 42.4442V40.7482Z" fill="#1A5098"/>
<path d="M881.231 41.189L886.624 32.5737H892.39L886.76 41.4942L892.628 50.6183H886.828L881.231 41.7995V50.6183H875.804V23.5514L881.231 23.0426" fill="#1A5098"/>
</g>
<rect x="949.5" width="217.375" height="74" rx="10" fill="white"/>
<path fill-rule="evenodd" clip-rule="evenodd" d="M1032.52 47.3458L1034.29 43.22C1036.21 44.6541 1038.76 45.3996 1041.28 45.3996C1043.15 45.3996 1044.32 44.6825 1044.32 43.5956C1044.3 40.5567 1033.18 42.9355 1033.09 35.3155C1033.06 31.4457 1036.5 28.4637 1041.37 28.4637C1044.27 28.4637 1047.16 29.1808 1049.22 30.814L1047.56 35.0252C1045.67 33.8188 1043.32 32.9595 1041.09 32.9595C1039.57 32.9595 1038.56 33.6765 1038.56 34.5927C1038.59 37.5747 1049.8 35.9415 1049.91 43.22C1049.91 47.1751 1046.56 49.9579 1041.75 49.9579C1038.22 49.9522 1034.98 49.1214 1032.52 47.3458ZM1100.7 41.729C1099.81 43.2769 1098.15 44.3354 1096.22 44.3354C1093.38 44.3354 1091.1 42.042 1091.1 39.208C1091.1 36.374 1093.39 34.0806 1096.22 34.0806C1098.14 34.0806 1099.81 35.1391 1100.7 36.687L1105.6 33.9668C1103.76 30.7002 1100.24 28.4637 1096.22 28.4637C1090.29 28.4637 1085.47 33.2782 1085.47 39.2137C1085.47 45.1492 1090.29 49.9636 1096.22 49.9636C1100.26 49.9636 1103.76 47.7556 1105.6 44.4606L1100.7 41.729ZM1052.38 19.5463H1058.51V49.5539H1052.38V19.5463ZM1108 19.5463V49.5539H1114.14V40.551L1121.42 49.5539H1129.27L1120.01 38.8608L1128.58 28.8849H1121.07L1114.13 37.165V19.5463H1108Z" fill="black"/>
<path d="M1076.74 41.7857C1075.85 43.2483 1074.02 44.3352 1071.95 44.3352C1069.11 44.3352 1066.82 42.0418 1066.82 39.2078C1066.82 36.3738 1069.12 34.0804 1071.95 34.0804C1074.02 34.0804 1075.85 35.2242 1076.74 36.7152V41.7857ZM1076.74 28.8904V31.326C1075.74 29.6359 1073.24 28.4579 1070.63 28.4579C1065.24 28.4579 1061 33.2154 1061 39.1794C1061 45.1433 1065.24 49.9577 1070.63 49.9577C1073.24 49.9577 1075.73 48.7854 1076.74 47.0896V49.5252H1082.87V28.8904H1076.74Z" fill="black"/>
<path fill-rule="evenodd" clip-rule="evenodd" d="M994.597 41.7575C994.597 43.8517 992.907 45.5419 990.813 45.5419C988.719 45.5419 987.029 43.846 987.029 41.7575C987.029 39.669 988.719 37.9731 990.813 37.9731H994.597V41.7575ZM996.487 41.7575C996.487 39.6633 998.177 37.9731 1000.27 37.9731C1002.37 37.9731 1004.06 39.6633 1004.06 41.7575V51.2156C1004.06 53.3098 1002.37 55 1000.27 55C998.177 55 996.487 53.3098 996.487 51.2156V41.7575Z" fill="#E01E5A"/>
<path fill-rule="evenodd" clip-rule="evenodd" d="M1000.27 26.5688C998.177 26.5688 996.487 24.8786 996.487 22.7844C996.487 20.6902 998.177 19 1000.27 19C1002.37 19 1004.06 20.6902 1004.06 22.7844V26.5688H1000.27ZM1000.27 28.4866C1002.37 28.4866 1004.06 30.1767 1004.06 32.2709C1004.06 34.3652 1002.37 36.0553 1000.27 36.0553H990.784C988.69 36.0553 987 34.3595 987 32.2709C987 30.1824 988.69 28.4866 990.784 28.4866H1000.27Z" fill="#36C5F0"/>
<path fill-rule="evenodd" clip-rule="evenodd" d="M1015.43 32.2709C1015.43 30.1767 1017.12 28.4866 1019.22 28.4866C1021.31 28.4866 1023 30.1767 1023 32.2709C1023 34.3652 1021.31 36.0553 1019.22 36.0553H1015.43V32.2709ZM1013.54 32.2709C1013.54 34.3652 1011.85 36.0553 1009.76 36.0553C1007.66 36.0553 1005.97 34.3652 1005.97 32.2709V22.7844C1005.97 20.6902 1007.66 19 1009.76 19C1011.85 19 1013.54 20.6902 1013.54 22.7844V32.2709Z" fill="#2EB67D"/>
<path fill-rule="evenodd" clip-rule="evenodd" d="M1009.76 47.4312C1011.85 47.4312 1013.54 49.1214 1013.54 51.2156C1013.54 53.3098 1011.85 55 1009.76 55C1007.66 55 1005.97 53.3098 1005.97 51.2156V47.4312H1009.76ZM1009.76 45.5419C1007.66 45.5419 1005.97 43.8517 1005.97 41.7575C1005.97 39.6633 1007.66 37.9731 1009.76 37.9731H1019.24C1021.34 37.9731 1023.03 39.6633 1023.03 41.7575C1023.03 43.8517 1021.34 45.5419 1019.24 45.5419H1009.76Z" fill="#ECB22E"/>
<defs>
<clipPath id="clip0_1_89">
<rect width="128.205" height="40" fill="white" transform="translate(524 17)"/>
</clipPath>
<clipPath id="clip1_1_89">
<rect width="144.628" height="28" fill="white" transform="translate(748 23)"/>
</clipPath>
</defs>
</svg>
